<svg enable-background="new 0 0 504 504" id="Layer_1" version="1.1" viewBox="0 0 504 504" xml:space="preserve" xmlns="http://www.w3.org/2000/svg" xmlns:xlink="http://www.w3.org/1999/xlink"><path d="M461.6,257.3c-9.2,58.5-27.1,75.6-58.8,114.9c-31.7,33.3-77.3,88.9-141.9,85.8  c-58.5-9.2-75.6-27.1-114.9-58.8c-33.3-31.7-88.9-77.3-85.8-141.9c9.2-58.5,27.1-75.6,58.8-114.9c31.7-33.3,77.3-88.9,141.9-85.8  c58.5,9.2,75.6,27.1,114.9,58.8C409.1,147.1,464.7,192.7,461.6,257.3z" fill="#851374" id="id_101"></path><path d="M177.3,207.4c-4.9,15.9-0.8,34,11.9,46.7l4.1,4.1l20.8,21.1l22.2,22.2l20.8-21.1l-22.2-22.2L214,237.4  l-4.1-4.1c-6.8-6.8-6.8-17.8,0-24.6c6.8-6.8,17.8-6.8,24.6,0l1.6,1.6l20.8-21.1l-1.6-1.6c-11.9-11.9-28.6-16.2-44-12.4  c-2.2-13.5-13.8-23.8-28.1-23.8c-15.7,0-28.4,12.7-28.4,28.4C155.2,193.1,164.6,204.4,177.3,207.4z M238.6,212.6l20.8-20.8l4.1-4.1  c12.7-12.7,30.5-16.5,46.5-11.9c1.9-13.8,13.8-24.6,28.1-24.6c15.7,0,28.4,12.7,28.4,28.4c0,14.3-10.8,26.2-24.6,28.1  c4.6,15.9,0.5,33.8-11.9,46.2l-1.6,1.6l-20.8-21.1l1.6-1.6c6.8-6.8,6.8-17.8,0-24.6c-6.8-6.8-17.8-6.8-24.6,0l-4.1,4.1l-20.8,21.1  l-22.2,22.2l-20.8-21.1L238.6,212.6z M366.9,334.7c0,15.7-12.7,28.4-28.4,28.4c-13.8,0-25.1-9.7-27.8-22.7  c-16.2,4.9-34.3,1.1-47-11.6l-1.6-1.6l20.8-21.1l1.6,1.6c6.8,6.8,17.8,6.8,24.6,0s6.8-17.8,0-24.6l-4.1-4.1l-20.8-21.1l-22.2-22.2  l20.8-20.8l22.2,22.2l20.8,21.1l4.1,4.1c12.2,12.2,16.2,28.9,12.4,44.3C356.4,308.7,366.9,320.3,366.9,334.7z M280.5,303.6  l-20.8,21.1l-4.1,4.1c-12.2,12.2-29.2,16.2-44.6,12.4c-3,12.7-14,21.9-27.6,22.2c-15.7,0-28.4-12.7-28.4-28.4  c0-13.5,9.2-24.6,21.9-27.6c-4.1-15.7,0.3-32.7,12.4-44.8l1.6-1.6l20.8,20.8l-1.6,1.6c-6.8,6.8-6.8,17.8,0,24.6  c6.8,6.8,17.8,6.8,24.6,0l4.1-4.1l20.8-21.1l22.2-22.2l20.8,21.1L280.5,303.6z" fill="#FFFFFF" id="id_102"></path></svg>